<?xml version="1.0" encoding="UTF-8"?>
<svg width="400px" height="49px" viewBox="0 0 400 49" version="1.1" xmlns="http://www.w3.org/2000/svg" xmlns:xlink="http://www.w3.org/1999/xlink">
    <!-- Generator: Sketch 50.2 (55047) - http://www.bohemiancoding.com/sketch -->
    <title>logo</title>
    <desc>Created with Sketch.</desc>
    <defs>
        <polygon id="path-1" points="0.615056633 0.308083151 55.1106958 0.308083151 55.1106958 47.6421359 0.615056633 47.6421359"></polygon>
        <polygon id="path-3" points="0.615056633 0.308083151 55.1122786 0.308083151 55.1122786 47.6421359 0.615056633 47.6421359"></polygon>
    </defs>
    <g id="Page-1" stroke="none" stroke-width="1" fill="none" fill-rule="evenodd">
        <g id="TOP_PC_3" transform="translate(-763.000000, -320.000000)">
            <g id="tit_2" transform="translate(763.000000, 320.000000)">
                <g id="logo">
                    <path d="M14.2701285,45.5035219 C16.3995241,46.116763 17.9091702,46.3833896 19.9750017,46.3833896 C26.7763547,46.3833896 31.305293,42.3824226 31.305293,36.4225344 C31.305293,30.0548645 25.870567,25.9927302 17.4324398,25.9927302 C16.3995241,25.9927302 15.6526465,26.0554658 14.2701285,26.1966211 L14.2701285,45.5035219 Z M14.2701285,23.0127861 C17.2258567,23.6087749 18.4653556,23.7499302 20.0385657,23.7499302 C25.5368558,23.7499302 29.7956469,19.6250602 29.7956469,14.4023161 C29.7956469,8.70905458 25.0601254,4.44302939 18.6719387,4.44302939 C17.2258567,4.44302939 16.0658128,4.6469203 14.2701285,4.91354687 L14.2701285,23.0127861 Z M20.9284624,2.2159133 C29.5096087,2.2159133 37.8206078,6.34078324 37.8206078,14.6062071 C37.8206078,19.6250602 34.5311684,23.4833036 29.1758975,24.7693847 L29.1758975,24.91054 C35.6276482,25.9143106 39.8864393,30.7292729 39.8864393,36.2813792 C39.8864393,42.6506175 34.8013156,48.7500925 23.3438962,48.7500925 L0,48.7500925 L0,47.5283154 C6.3881867,47.6035982 6.86491705,45.09574 6.86491705,40.2180421 L6.86491705,11.2184812 C6.86491705,5.5252196 6.3881867,3.42357484 0,3.42357484 L0,2.2159133 L20.9284624,2.2159133 Z" id="Fill-1" fill="#ECECEF"></path>
                    <path d="M52.0739625,44.8399288 C52.0739625,47.0050608 50.3900534,48.7500925 48.2365928,48.7500925 C46.0669407,48.7500925 44.3182659,47.0050608 44.3182659,44.8399288 C44.3182659,42.6747969 46.0669407,40.994396 48.2365928,40.994396 C50.3900534,40.994396 52.0739625,42.6747969 52.0739625,44.8399288" id="Fill-3" fill="#ECECEF"></path>
                    <path d="M72.4028265,24.6282295 L74.290416,24.6282295 C82.776769,24.6282295 87.9091405,21.1150323 87.9091405,14.5434714 C87.9091405,8.91294549 83.3851656,4.58418463 77.5975977,4.58418463 C75.8348075,4.58418463 74.5556146,4.85081121 72.4028265,5.79184618 L72.4028265,24.6282295 Z M96.1302949,40.6258239 C99.7650748,45.2212114 102.666659,47.1958164 106.363838,47.5267471 L106.363838,48.7500925 L94.3051051,48.7500925 L76.8488018,26.9337651 L72.4028265,26.9337651 L72.4028265,41.7707498 C72.4028265,44.9545848 73.2764216,47.6663339 78.9391903,47.5267471 L78.9391903,48.7500925 L58.7217023,48.7500925 L58.7217023,47.5267471 C64.0568728,47.6020298 65.1332668,45.299631 65.1332668,42.0373764 L65.1332668,8.78747416 C65.1332668,5.39974827 63.651275,3.42357484 58.7217023,3.42357484 L58.7217023,2.2159133 L82.1059727,2.2159133 C90.1243282,2.2159133 96.3330938,7.42297346 96.3330938,14.3395805 C96.3330938,19.9544225 92.4799152,24.2988672 84.6019589,26.2593568 L96.1302949,40.6258239 Z" id="Fill-5" fill="#ECECEF"></path>
                    <path d="M118.551361,44.8399288 C118.551361,47.0050608 116.883644,48.7500925 114.713992,48.7500925 C112.54434,48.7500925 110.795665,47.0050608 110.795665,44.8399288 C110.795665,42.6747969 112.54434,40.994396 114.713992,40.994396 C116.883644,40.994396 118.551361,42.6747969 118.551361,44.8399288" id="Fill-7" fill="#ECECEF"></path>
                    <path d="M146.7726,46.1685571 C156.063608,46.1685571 162.07823,37.5896742 162.07823,24.3986579 C162.07823,11.1446773 156.063608,2.58153541 146.7726,2.58153541 C137.465764,2.58153541 131.530282,11.1446773 131.530282,24.3986579 C131.530282,37.5896742 137.465764,46.1685571 146.7726,46.1685571 M146.7726,0 C159.957284,0 170.625324,10.8770791 170.625324,24.3986579 C170.625324,37.8714393 159.957284,48.7500925 146.7726,48.7500925 C133.572088,48.7500925 122.983188,37.8714393 122.983188,24.3986579 C122.983188,10.8770791 133.572088,0 146.7726,0" id="Fill-9" fill="#ECECEF"></path>
                    <g id="Group-13" transform="translate(171.733280, 1.107957)">
                        <mask id="mask-2" fill="white">
                            <use xlink:href="#path-1"></use>
                        </mask>
                        <g id="Clip-12"></g>
                        <path d="M55.1106958,1.52218919 L53.2588254,1.52218919 C48.3379151,1.52218919 47.7190421,2.27903452 47.7190421,8.12881818 L47.7190421,47.6424512 L46.769365,47.6424512 L13.1998614,9.97362866 L13.1998614,39.1910117 C13.1998614,44.159386 15.050149,45.9363957 20.0359539,45.8622879 L20.0359539,47.0905848 L3.08421716,47.0905848 L3.08421716,45.8622879 C8.48313163,46.0010429 10.1909677,44.0947388 10.1909677,40.073998 L10.1909677,6.97778258 C7.72338993,2.95704179 4.99939937,1.52218919 0.615056633,1.52218919 L0.615056633,0.308083151 L14.2904073,0.308083151 L44.6500022,34.8375744 L44.6500022,6.91471214 C44.6500022,2.95704179 43.6196025,1.52218919 39.6626145,1.52218919 L37.8107441,1.52218919 L37.8107441,0.308083151 L55.1106958,0.308083151 L55.1106958,1.52218919 Z" id="Fill-11" fill="#ECECEF" mask="url(#mask-2)"></path>
                    </g>
                    <path d="M267.533216,48.7500925 L230.454983,48.7500925 L230.454983,47.5283154 C236.266569,47.6694707 237.425753,45.6289932 237.425753,41.6452785 L237.425753,9.25799165 C237.425753,5.5252196 236.266569,3.29810351 230.454983,3.42357484 L230.454983,2.2159133 L251.288971,2.2159133 L251.288971,3.42357484 C246.150965,3.36083917 244.725481,4.91354687 244.725481,9.32072731 L244.725481,42.9940953 C244.725481,45.0173205 245.399061,45.7089812 247.435466,45.7089812 L256.912581,45.7089812 C263.397747,45.7089812 266.922294,44.2174407 270.307426,35.9520169 L271.449379,36.3597988 L267.533216,48.7500925 Z" id="Fill-14" fill="#ECECEF"></path>
                    <path d="M274.773249,2.2159133 L295.824425,2.2159133 L295.824425,3.42357484 C290.966461,3.36083917 288.899899,4.38029372 288.899899,9.32072731 L288.899899,41.7080142 C288.899899,46.2390975 290.488376,47.5283154 295.824425,47.5283154 L295.824425,48.7500925 L274.773249,48.7500925 L274.773249,47.5283154 C280.433162,47.5283154 281.697775,46.1779303 281.697775,41.6452785 L281.697775,9.25799165 C281.697775,5.11743778 280.309785,3.36083917 274.773249,3.42357484 L274.773249,2.2159133 Z" id="Fill-16" fill="#ECECEF"></path>
                    <g id="Group-20" transform="translate(299.148295, 1.107957)">
                        <mask id="mask-4" fill="white">
                            <use xlink:href="#path-3"></use>
                        </mask>
                        <g id="Clip-19"></g>
                        <path d="M55.1122786,1.52218919 L53.2604082,1.52218919 C48.3394978,1.52218919 47.7206249,2.27903452 47.7206249,8.12881818 L47.7206249,47.6424512 L46.769365,47.6424512 L13.2014442,9.97362866 L13.2014442,39.1910117 C13.2014442,44.159386 15.050149,45.9363957 20.0359539,45.8622879 L20.0359539,47.0905848 L3.08421716,47.0905848 L3.08421716,45.8622879 C8.48313163,46.0010429 10.1925505,44.0947388 10.1925505,40.073998 L10.1925505,6.97778258 C7.72497272,2.95704179 4.99939937,1.52218919 0.615056633,1.52218919 L0.615056633,0.308083151 L14.2904073,0.308083151 L44.651585,34.8375744 L44.651585,6.91471214 C44.651585,2.95704179 43.6211853,1.52218919 39.6641973,1.52218919 L37.8107441,1.52218919 L37.8107441,0.308083151 L55.1122786,0.308083151 L55.1122786,1.52218919 Z" id="Fill-18" fill="#ECECEF" mask="url(#mask-4)"></path>
                    </g>
                    <path d="M396.200385,12.5045623 L395.06412,12.5045623 C394.047872,6.95245597 391.569598,4.91354687 387.314448,4.91354687 L372.915519,4.91354687 L372.915519,22.8716309 L384.836173,22.8716309 C389.28148,22.8716309 390.885345,20.5660952 390.885345,16.0961791 L392.099543,16.0961791 L392.099543,32.4858715 L390.885345,32.4858715 C390.885345,27.6066052 389.28148,25.5849484 384.555614,25.5849484 L372.915519,25.5849484 L372.915519,42.3808542 C372.915519,44.9545848 373.724465,46.0336382 375.749168,46.0336382 L387.314448,46.0336382 C391.83457,46.0336382 395.81072,43.7312393 398.571112,37.1596785 L399.97235,37.1596785 L396.200385,48.7500925 L358.977954,48.7500925 L358.977954,47.5283154 C364.433275,47.6020298 365.636562,45.6289932 365.636562,41.6452785 L365.636562,8.64631892 C365.636562,4.99196645 363.688234,3.36083917 358.977954,3.42357484 L358.977954,2.2159133 L395.67044,2.2159133 L396.200385,12.5045623 Z" id="Fill-21" fill="#ECECEF"></path>
                </g>
            </g>
        </g>
    </g>
</svg>